<svg width="38" height="40" viewBox="0 0 38 40" fill="none" xmlns="http://www.w3.org/2000/svg">
<path d="M19 19.0821C16.3875 19.0821 14.25 18.1916 12.5875 16.4106C10.925 14.6296 10.0938 12.3398 10.0938 9.54106C10.0938 6.74235 10.925 4.4525 12.5875 2.6715C14.25 0.890499 16.3875 0 19 0C21.6125 0 23.75 0.890499 25.4125 2.6715C27.075 4.4525 27.9062 6.74235 27.9062 9.54106C27.9062 12.3398 27.075 14.6296 25.4125 16.4106C23.75 18.1916 21.6125 19.0821 19 19.0821ZM0 39.5V33.5209C0 31.9096 0.376042 30.5314 1.12812 29.3865C1.88021 28.2415 2.85 27.3722 4.0375 26.7786C6.68958 25.5064 9.23281 24.5523 11.6672 23.9163C14.1016 23.2802 16.5458 22.9622 19 22.9622C21.4542 22.9622 23.8885 23.2908 26.3031 23.9481C28.7177 24.6053 31.2495 25.553 33.8984 26.7909C35.1374 27.3899 36.1308 28.2585 36.8785 29.3967C37.6262 30.5348 38 31.9096 38 33.5209V39.5H0ZM3.5625 35.6836H34.4375V33.5209C34.4375 32.8425 34.2495 32.1958 33.8734 31.5809C33.4974 30.9661 33.0323 30.5102 32.4781 30.2134C29.9448 28.8988 27.6292 27.9977 25.5312 27.5101C23.4333 27.0224 21.2562 26.7786 19 26.7786C16.7438 26.7786 14.5469 27.0224 12.4094 27.5101C10.2719 27.9977 7.95625 28.8988 5.4625 30.2134C4.90833 30.5102 4.45313 30.9661 4.09688 31.5809C3.74063 32.1958 3.5625 32.8425 3.5625 33.5209V35.6836ZM19 15.2657C20.5438 15.2657 21.8203 14.725 22.8297 13.6437C23.8391 12.5624 24.3438 11.1948 24.3438 9.54106C24.3438 7.88728 23.8391 6.51973 22.8297 5.43841C21.8203 4.35709 20.5438 3.81643 19 3.81643C17.4562 3.81643 16.1797 4.35709 15.1703 5.43841C14.1609 6.51973 13.6562 7.88728 13.6562 9.54106C13.6562 11.1948 14.1609 12.5624 15.1703 13.6437C16.1797 14.725 17.4562 15.2657 19 15.2657Z" fill="white"/>
</svg>
